<svg width="136" height="136" viewBox="0 0 136 136" fill="none" xmlns="http://www.w3.org/2000/svg">
<g filter="url(#filter0_d_23_15)">
<path fill-rule="evenodd" clip-rule="evenodd" d="M4 0H132V128H4V0ZM73.4589 58.6666H61.851V101.208C61.851 102.463 60.7843 107.608 55.3883 107.357C49.9922 107.106 47.5451 101.082 47.5451 101.082L37.9451 106.98C37.9451 106.98 43.2785 117.898 54.0079 117.898C64.7373 117.898 73.4589 113.882 73.4589 101.208V58.6666ZM118.384 67.5765C114.35 60.5602 107.782 57.6466 100.941 58.0392C94.1007 58.4318 84.1254 60.9977 83.8745 74.5412C83.6237 88.0846 100.126 92.8 100.126 92.8C107.004 95.6933 110.238 97.4064 110.039 101.333C109.295 106.157 106.086 107.42 101.945 107.42C97.8039 107.42 93.69 105.561 89.8981 100.141L80.3608 105.663C85.4623 113.734 91.4667 118.023 101.945 117.961C112.424 117.898 122.4 112.502 122.086 101.333C121.773 90.1647 116.376 87.2225 105.459 82.1333C98.2631 79.3103 96.1098 78.0549 95.7334 74.5412C95.3569 71.0275 97.8039 68.3922 101.318 68.3922C104.831 68.3922 107.372 70.2755 109.161 73.6L118.384 67.5765Z" fill="#F0E3CA"/>
</g>
<defs>
<filter id="filter0_d_23_15" x="0" y="0" width="136" height="136" filterUnits="userSpaceOnUse" color-interpolation-filters="sRGB">
<feFlood flood-opacity="0" result="BackgroundImageFix"/>
<feColorMatrix in="SourceAlpha" type="matrix" values="0 0 0 0 0 0 0 0 0 0 0 0 0 0 0 0 0 0 127 0" result="hardAlpha"/>
<feOffset dy="4"/>
<feGaussianBlur stdDeviation="2"/>
<feComposite in2="hardAlpha" operator="out"/>
<feColorMatrix type="matrix" values="0 0 0 0 0 0 0 0 0 0 0 0 0 0 0 0 0 0 0.25 0"/>
<feBlend mode="normal" in2="BackgroundImageFix" result="effect1_dropShadow_23_15"/>
<feBlend mode="normal" in="SourceGraphic" in2="effect1_dropShadow_23_15" result="shape"/>
</filter>
</defs>
</svg>
