<svg width="137" height="136" viewBox="0 0 137 136" fill="none" xmlns="http://www.w3.org/2000/svg">
<g filter="url(#filter0_d_23_23)">
<path fill-rule="evenodd" clip-rule="evenodd" d="M21 0C11.6112 0 4 7.61116 4 17V33.1551H3.99996V44.0195H4V64V111C4 120.389 11.6112 128 21 128H68.2498H115.5C124.888 128 132.5 120.389 132.5 111V64V17C132.5 7.61116 124.888 0 115.5 0H68.2498H21ZM4 44.0195H31.5528C33.5254 48.8193 38.247 52.199 43.758 52.199C45.5519 52.199 47.2622 51.8409 48.8212 51.1923L82.3283 84.6994C81.6855 86.2525 81.3307 87.955 81.3307 89.7405C81.3307 97.0253 87.2362 102.931 94.521 102.931C101.806 102.931 107.711 97.0253 107.711 89.7405C107.711 82.4557 101.806 76.5502 94.521 76.5502C93.0263 76.5502 91.5898 76.7988 90.2504 77.2569L57.013 44.0195H82.3782C84.3508 48.8193 89.0724 52.199 94.5834 52.199C101.868 52.199 107.774 46.2935 107.774 39.0088C107.774 31.724 101.868 25.8185 94.5834 25.8185C89.401 25.8185 84.9166 28.8073 82.7599 33.1551H55.5815C53.4248 28.8073 48.9404 25.8185 43.758 25.8185C38.5756 25.8185 34.0912 28.8073 31.9345 33.1551H4V44.0195Z" fill="#F0E3CA"/>
</g>
<defs>
<filter id="filter0_d_23_23" x="0" y="0" width="136.5" height="136" filterUnits="userSpaceOnUse" color-interpolation-filters="sRGB">
<feFlood flood-opacity="0" result="BackgroundImageFix"/>
<feColorMatrix in="SourceAlpha" type="matrix" values="0 0 0 0 0 0 0 0 0 0 0 0 0 0 0 0 0 0 127 0" result="hardAlpha"/>
<feOffset dy="4"/>
<feGaussianBlur stdDeviation="2"/>
<feComposite in2="hardAlpha" operator="out"/>
<feColorMatrix type="matrix" values="0 0 0 0 0 0 0 0 0 0 0 0 0 0 0 0 0 0 0.25 0"/>
<feBlend mode="normal" in2="BackgroundImageFix" result="effect1_dropShadow_23_23"/>
<feBlend mode="normal" in="SourceGraphic" in2="effect1_dropShadow_23_23" result="shape"/>
</filter>
</defs>
</svg>
