<svg width="136" height="136" viewBox="0 0 136 136" fill="none" xmlns="http://www.w3.org/2000/svg">
<g filter="url(#filter0_d_36_6)">
<path fill-rule="evenodd" clip-rule="evenodd" d="M132 64C132 99.3462 103.346 128 68 128C32.6538 128 4 99.3462 4 64C4 28.6538 32.6538 0 68 0C103.346 0 132 28.6538 132 64ZM58.3713 51.548C58.3713 51.548 58.0391 51.0504 57.7068 51.0504C57.3746 51.0504 57.1301 51.1583 57.0453 51.548C57.041 52.2082 57.1848 52.8726 57.5429 53.54C58.4346 55.2169 59.8641 56.5731 61.6935 57.6906C64.5153 59.497 68.1424 60.0521 72.1521 60.0147C75.0127 59.9975 78.2962 59.5991 81.7809 59.0181C86.4953 57.9063 90.7409 56.018 94.7305 53.7054C99.0739 50.9037 102.717 47.1457 105.521 42.2501C105.696 41.9101 105.871 41.597 106.047 41.2839C106.998 39.5903 107.948 37.8972 108.675 31.9569C108.675 29.847 108.294 27.6854 107.348 25.4821C106.363 22.6416 103.965 20.5562 100.873 18.8419C100.873 18.8419 94.7305 15.5211 86.4292 15.5211C78.1279 15.5211 71.6531 17.6798 71.6531 17.6798C66.2009 19.2316 60.53 21.6636 54.7197 24.6522C50.7877 26.6024 46.9894 29.0589 43.2644 31.7915C37.1866 35.9766 32.8461 41.3972 29.3196 47.3974C28.1158 49.8438 27.4068 52.3808 27.3277 55.0343C27.5909 58.7204 29.1355 62.1519 31.976 65.3275C35.1026 68.9431 38.6521 72.0338 42.6014 74.624L49.906 79.7699C50.8089 80.3864 51.6782 81.031 52.4614 81.7475C51.3677 82.3084 50.15 82.9693 48.7425 83.7551C43.9332 85.9944 39.4474 89.5885 35.1285 93.883C33.8068 95.547 32.754 97.3591 32.1399 99.5279C30.7161 104.557 31.6797 108.456 35.1285 111.149C36.3193 111.773 38.1876 112.145 40.6066 112.311C47.2037 112.276 52.0705 109.61 55.8803 105.338C59.1134 101.845 61.1657 97.198 61.5253 90.8944C61.6709 88.2606 61.1523 85.7504 59.9832 83.3616C61.924 82.7621 63.9697 82.4078 66.175 82.4263C74.1282 83.1209 81.4947 84.5232 82.7761 93.2171C82.5719 95.4161 81.5192 97.3864 79.4553 98.862C79.4553 98.862 77.7957 99.6919 78.2933 100.189C78.7909 100.687 79.7876 100.189 79.7876 100.189C82.7833 99.0547 84.722 96.8974 85.4325 93.5493C86.061 89.9452 84.4459 86.4762 81.4487 83.0907C79.0555 80.7177 76.0641 78.5417 68.6659 78.1102C66.3001 78.1217 64.127 78.2051 62.3566 78.4424C60.5156 78.7334 59.016 79.0607 57.4936 79.5627C56.1689 77.9675 54.5231 76.4323 52.561 74.9562L45.0895 69.1459C39.7739 64.9305 36.8687 60.4735 37.1204 55.6987C37.1607 48.4746 42.6877 40.4725 61.1931 30.6294C69.7547 25.9711 78.3882 23.5606 87.0922 23.3248C94.7161 23.5606 100.933 25.1714 101.701 32.1237C101.414 37.9944 97.942 42.8153 92.7371 47.0652C86.0135 52.2571 78.2775 55.3823 69.1621 55.6987C64.452 55.5836 60.7098 54.3655 58.3713 51.548ZM55.14 85.388C53.2473 86.3637 51.4183 87.488 49.5893 88.6123C49.252 88.8196 48.9148 89.0269 48.5771 89.2333C44.7486 91.9083 42.0204 94.9645 40.2758 98.3644C39.597 99.6387 39.2533 101.039 39.1138 102.515C39.1051 105.041 40.3003 105.8 42.1023 105.669C45.649 105.886 49.0014 103.719 52.2302 100.024C54.3587 97.1894 55.7782 94.021 55.8832 90.2285C56.0001 88.3098 55.7116 86.7304 55.14 85.388Z" fill="#F0E3CA"/>
</g>
<defs>
<filter id="filter0_d_36_6" x="0" y="0" width="136" height="136" filterUnits="userSpaceOnUse" color-interpolation-filters="sRGB">
<feFlood flood-opacity="0" result="BackgroundImageFix"/>
<feColorMatrix in="SourceAlpha" type="matrix" values="0 0 0 0 0 0 0 0 0 0 0 0 0 0 0 0 0 0 127 0" result="hardAlpha"/>
<feOffset dy="4"/>
<feGaussianBlur stdDeviation="2"/>
<feComposite in2="hardAlpha" operator="out"/>
<feColorMatrix type="matrix" values="0 0 0 0 0 0 0 0 0 0 0 0 0 0 0 0 0 0 0.25 0"/>
<feBlend mode="normal" in2="BackgroundImageFix" result="effect1_dropShadow_36_6"/>
<feBlend mode="normal" in="SourceGraphic" in2="effect1_dropShadow_36_6" result="shape"/>
</filter>
</defs>
</svg>
